<svg xmlns="http://www.w3.org/2000/svg" viewBox="0 0 424.1 148"><title>bbb</title><rect x="1.5" y="1.5" width="421.1" height="145.02" rx="20.1" style="fill:#016596;stroke:#016596;stroke-miterlimit:10;stroke-width:3px"></rect><path d="M149.1,1.5H21.6A20.1,20.1,0,0,0,1.5,21.6V126.4a20.1,20.1,0,0,0,20.1,20.1H149.1Z" style="fill:#fff;fill-rule:evenodd"></path><path d="M71.5,46.6l-6.3,8.6c-3.1,4.4-2.2,12,2.1,15.1L79,78.7c2,1.5,2.1,2.9,1.2,4.4l1.7,1.3,5.8-8.2c3.7-5,3.4-11.9-2-15.8L73.9,51.8c-1.4-1-1.5-2.4-.7-4l-1.7-1.2Z" style="fill:#016596;fill-rule:evenodd"></path><path d="M81.5,8.4,71.8,21.9c-4.6,6.3-2.9,17.2,3.3,21.7L91.2,55.4c3.2,2.4,3.6,8.5,1.3,11.6l1.3,1,11.1-15.5c5-7,4.7-17.4-3.1-23L84.6,17C82.2,15.2,81,12.3,83,9.4l-1.5-1Z" style="fill:#016596;fill-rule:evenodd"></path><path d="M55.8,93.1H68.7l2.4,7.8H92.2l2.3-7.8h12.9l-1.7-5.8H57.5l-1.7,5.8Z" style="fill:#016596;fill-rule:evenodd"></path><path d="M122.6,133.3V133l-.2-.2c0-.1-.1-.2-.3-.2l-.4-.2-.4-.2H121v-.6H122l.3.2.3-.2-.5-.3h-1.3l-.2.3a.4.4,0,0,0-.1.3c0,.2,0,.3.1.3s.1.2.1.3l.3.2.5.2h.4l.2.2c.1,0,.1.1.1.2v.2l-.2.4h-1l-.4-.3-.3.3.5.3H122l.3-.2.3-.3v-.4Z" style="fill:#016596;fill-rule:evenodd"></path><path d="M126.1,134.2V131h-.4l-.8,1.9h-.1c0,.1,0,.2-.1.2v.2h-.1c0-.1-.1-.1-.1-.2h0v-.2l-.8-1.9h-.4v3.2h.4v-2.5h0v.2h.1l.8,2.1.9-2.1h.1v-.2h.1v2.5Z" style="fill:#016596;fill-rule:evenodd"></path><path d="M66.9,125.3c-.5-3.8-2-4.6-5-6a6.7,6.7,0,0,0,3.6-5.9c0-5.4-4.3-7.6-9.1-7.6H43v28.5H56.2C61.9,134.3,67.9,131.8,66.9,125.3ZM49,111.3h7c4.3,0,4.5,6,.3,6H49Zm7.8,17.6H49v-6.5h7.8C62.5,122.4,62.1,128.9,56.8,128.9Z" style="fill:#016596;fill-rule:evenodd"></path><path d="M93.5,125.3c-.6-3.8-2.1-4.6-5.1-6a6.6,6.6,0,0,0,3.7-5.9c0-5.4-4.4-7.6-9.2-7.6H69.5v28.5H82.8C88.5,134.3,94.5,131.8,93.5,125.3Zm-17.9-14h7c4.3,0,4.5,6,.2,6H75.6Zm7.8,17.6H75.6v-6.5h7.8C89.1,122.4,88.7,128.9,83.4,128.9Z" style="fill:#016596;fill-rule:evenodd"></path><path d="M120.1,125.3c-.6-3.8-2.1-4.6-5.1-6a6.6,6.6,0,0,0,3.7-5.9c0-5.4-4.4-7.6-9.2-7.6H96.1v28.5h13.3C115,134.3,121,131.8,120.1,125.3Zm-17.9-14h6.9c4.4,0,4.5,6,.3,6h-7.2Zm7.7,17.6h-7.7v-6.5h7.7C115.6,122.4,115.3,128.9,109.9,128.9Z" style="fill:#016596;fill-rule:evenodd"></path><path d="M220.3,49.3a15.3,15.3,0,0,0-6.6-4.2,12.2,12.2,0,0,0-3.4-.4,11.8,11.8,0,0,0-5,1,10.2,10.2,0,0,0-3.8,2.7,12.2,12.2,0,0,0-2.5,4.3,15.3,15.3,0,0,0-.9,5.4,19.4,19.4,0,0,0,.8,5.6,12.7,12.7,0,0,0,2.5,4.2,11.9,11.9,0,0,0,3.8,2.7,12.6,12.6,0,0,0,4.9.9c3.3,0,9-1.8,10.7-5L216.9,63c-1.1,1.8-4.6,3.4-6.7,3.4a6,6,0,0,1-2.7-.7,6.8,6.8,0,0,1-2.1-1.7,7.7,7.7,0,0,1-1.2-2.6,11.1,11.1,0,0,1,0-6.6,6.9,6.9,0,0,1,1.2-2.6,5.4,5.4,0,0,1,2-1.7,6.4,6.4,0,0,1,2.8-.6,9.1,9.1,0,0,1,6.3,3.1l3.8-3.7Z" style="fill:#fff;fill-rule:evenodd"></path><polygon points="295.3 71.1 295.3 66 281.2 66 281.2 59.7 292.6 59.7 292.6 54.7 281.2 54.7 281.2 50.2 294.8 50.2 294.8 45.1 275.7 45.1 275.7 71.1 295.3 71.1 295.3 71.1" style="fill:#fff;fill-rule:evenodd"></polygon><path d="M320.6,52.1a10.2,10.2,0,0,0-2.9-4.1,10.3,10.3,0,0,0-4.3-2.2,18.1,18.1,0,0,0-5.4-.7h-8.6v26h8.2a18.1,18.1,0,0,0,5.2-.7,14,14,0,0,0,4.5-2.4,11.3,11.3,0,0,0,3.1-4,13.5,13.5,0,0,0,1.2-5.9A15.1,15.1,0,0,0,320.6,52.1Zm-5.1,9.3a10.4,10.4,0,0,1-1.5,2.5,7.6,7.6,0,0,1-2.6,1.6,10.8,10.8,0,0,1-3.8.6h-2.7V50.2h2.9c2.9,0,5,.6,6.3,1.9s1.9,3.4,1.9,6A11.4,11.4,0,0,1,315.5,61.4Z" style="fill:#fff;fill-rule:evenodd"></path><polygon points="332.4 71.1 332.4 45.1 326.9 45.1 326.9 71.1 332.4 71.1 332.4 71.1" style="fill:#fff;fill-rule:evenodd"></polygon><polygon points="358 50.2 358 45.1 336.7 45.1 336.7 50.2 344.6 50.2 344.6 71.1 350.1 71.1 350.1 50.2 358 50.2 358 50.2" style="fill:#fff;fill-rule:evenodd"></polygon><path d="M406.4,52.1a11.3,11.3,0,0,0-2.9-4.1,10.3,10.3,0,0,0-4.3-2.2,19,19,0,0,0-5.4-.7h-8.6v26h8.2a17.5,17.5,0,0,0,5.1-.7A12.2,12.2,0,0,0,403,68a10.5,10.5,0,0,0,3.2-4,13.5,13.5,0,0,0,1.2-5.9A15.1,15.1,0,0,0,406.4,52.1Zm-5.1,9.3a8.2,8.2,0,0,1-1.6,2.5,6.8,6.8,0,0,1-2.6,1.6,10.2,10.2,0,0,1-3.7.6h-2.7V50.2h2.9c2.9,0,5,.6,6.2,1.9a8.5,8.5,0,0,1,2,6A11.4,11.4,0,0,1,401.3,61.4Z" style="fill:#fff;fill-rule:evenodd"></path><polygon points="381.1 71.1 381.1 66 367 66 367 59.7 378.3 59.7 378.3 54.7 367 54.7 367 50.2 380.5 50.2 380.5 45.1 361.5 45.1 361.5 71.1 381.1 71.1 381.1 71.1" style="fill:#fff;fill-rule:evenodd"></polygon><polygon points="304.6 109.5 304.6 104.4 290.5 104.4 290.5 98.1 301.8 98.1 301.8 93.1 290.5 93.1 290.5 88.6 304 88.6 304 83.5 285 83.5 285 109.5 304.6 109.5 304.6 109.5" style="fill:#fff;fill-rule:evenodd"></polygon><path d="M245.6,49.3a15,15,0,0,0-6.5-4.2,13.4,13.4,0,0,0-3.5-.4,11.8,11.8,0,0,0-5,1,10.2,10.2,0,0,0-3.8,2.7,12.2,12.2,0,0,0-2.5,4.3,15.3,15.3,0,0,0-.9,5.4,16.4,16.4,0,0,0,.9,5.6,11,11,0,0,0,2.4,4.2,13.1,13.1,0,0,0,3.8,2.7,12.6,12.6,0,0,0,4.9.9c3.3,0,9-1.8,10.7-5L242.2,63c-1.1,1.8-4.6,3.4-6.7,3.4a6,6,0,0,1-2.7-.7,6.8,6.8,0,0,1-2.1-1.7,7.7,7.7,0,0,1-1.2-2.6,11.1,11.1,0,0,1,0-6.6,6.9,6.9,0,0,1,1.2-2.6,5.4,5.4,0,0,1,2-1.7,6.7,6.7,0,0,1,2.8-.6,8.9,8.9,0,0,1,6.3,3.1l3.8-3.7Z" style="fill:#fff;fill-rule:evenodd"></path><path d="M191.5,97.5a7.1,7.1,0,0,0-2.7-2.1,5.3,5.3,0,0,0,2.1-2.1,5.4,5.4,0,0,0,.7-2.9,5.9,5.9,0,0,0-2.2-5.1,9.9,9.9,0,0,0-6.2-1.8H170.9v26h12.2a16,16,0,0,0,3.9-.5,9,9,0,0,0,2.9-1.6,6.8,6.8,0,0,0,2-2.7,9.6,9.6,0,0,0,.7-3.6A6.1,6.1,0,0,0,191.5,97.5Zm-15.3-9.2H183a4.2,4.2,0,0,1,2.5.6,2.8,2.8,0,0,1,.1,3.6,3.3,3.3,0,0,1-2.4.7h-7Zm9.9,15.3a3.8,3.8,0,0,1-2.8,1h-7.1V97.8h7.1c2.5,0,3.8,1.1,3.8,3.4A3,3,0,0,1,186.1,103.6Z" style="fill:#fff;fill-rule:evenodd"></path><path d="M217.8,98V83.5h-5.4V98.1a7.4,7.4,0,0,1-1.5,4.9,4.8,4.8,0,0,1-4,1.8,4.9,4.9,0,0,1-4-1.8,7.6,7.6,0,0,1-1.4-5V83.5h-5.4V98.1a15,15,0,0,0,.8,5,10.4,10.4,0,0,0,2.2,3.7,8.9,8.9,0,0,0,3.4,2.3,12.3,12.3,0,0,0,4.4.8c3.4,0,6.1-1,8-3.1s2.9-5,2.9-8.8Z" style="fill:#fff;fill-rule:evenodd"></path><path d="M242.3,101.6a7.2,7.2,0,0,0-.8-3.5,6.3,6.3,0,0,0-2.1-2.2,9.2,9.2,0,0,0-2.8-1.4l-3.2-.9-2.7-.7-1.6-.6a2.4,2.4,0,0,1-.9-.8,3,3,0,0,1-.2-1,2.9,2.9,0,0,1,.2-.9,1.3,1.3,0,0,1,.6-.7l1.2-.6,1.8-.2a8.8,8.8,0,0,1,3.3.7,10.3,10.3,0,0,1,2.8,2l3.8-3.6a13.5,13.5,0,0,0-4.2-3,12,12,0,0,0-5.5-1.1,14.4,14.4,0,0,0-3.7.5,8.1,8.1,0,0,0-3.1,1.5,9.1,9.1,0,0,0-2,2.4,6.6,6.6,0,0,0-.7,3.2,7.3,7.3,0,0,0,.6,3.2,6.2,6.2,0,0,0,1.7,2.2,9.2,9.2,0,0,0,2.6,1.4l3.4,1,3.1.7a7.8,7.8,0,0,1,1.8.8,2.2,2.2,0,0,1,.8.9,2,2,0,0,1,.3,1.1,2.1,2.1,0,0,1-1.2,2.1,6.3,6.3,0,0,1-3.5.7,9.4,9.4,0,0,1-3.7-.7,7.4,7.4,0,0,1-3.1-2.3l-3.9,3.4a10.5,10.5,0,0,0,4.3,3.4,13.6,13.6,0,0,0,6.1,1.3,16.3,16.3,0,0,0,4.7-.6,10.3,10.3,0,0,0,3.3-1.7,7,7,0,0,0,1.9-2.6,9,9,0,0,0,.6-3.4Z" style="fill:#fff;fill-rule:evenodd"></path><polygon points="252 109.5 252 83.5 246.6 83.5 246.6 109.5 252 109.5 252 109.5" style="fill:#fff;fill-rule:evenodd"></polygon><path d="M279.1,109.5v-26h-5.2v16.7a5.3,5.3,0,0,0-.8-1.4l-1-1.6-9.5-13.7h-5.1v26h5.3V96.7a9.7,9.7,0,0,1-.1-1.7V92.4a11.7,11.7,0,0,0,.8,1.3l1.1,1.6,9.8,14.2Z" style="fill:#fff;fill-rule:evenodd"></path><path d="M326.4,101.6a7.2,7.2,0,0,0-.8-3.5,6.3,6.3,0,0,0-2.1-2.2,9.2,9.2,0,0,0-2.8-1.4l-3.2-.9-2.7-.7-1.6-.6a2.4,2.4,0,0,1-.9-.8,3,3,0,0,1-.2-1,2.9,2.9,0,0,1,.2-.9,1.3,1.3,0,0,1,.6-.7l1.2-.6,1.8-.2a8.8,8.8,0,0,1,3.3.7,10.3,10.3,0,0,1,2.8,2l3.8-3.6a14.8,14.8,0,0,0-4.2-3,12,12,0,0,0-5.5-1.1,14.4,14.4,0,0,0-3.7.5,8.1,8.1,0,0,0-3.1,1.5,9.1,9.1,0,0,0-2,2.4,6.6,6.6,0,0,0-.7,3.2,7.3,7.3,0,0,0,.6,3.2,5.2,5.2,0,0,0,1.7,2.2,9.2,9.2,0,0,0,2.6,1.4l3.4,1,3.1.7a10.5,10.5,0,0,1,1.8.8,2.2,2.2,0,0,1,.8.9,2,2,0,0,1,.3,1.1,2.1,2.1,0,0,1-1.2,2.1,6.3,6.3,0,0,1-3.5.7,9.4,9.4,0,0,1-3.7-.7,7.4,7.4,0,0,1-3.1-2.3l-3.9,3.4a10.5,10.5,0,0,0,4.3,3.4,13.6,13.6,0,0,0,6.1,1.3,16.3,16.3,0,0,0,4.7-.6,10.3,10.3,0,0,0,3.3-1.7,7,7,0,0,0,1.9-2.6,9,9,0,0,0,.6-3.4Z" style="fill:#fff;fill-rule:evenodd"></path><path d="M349.3,101.6a6.3,6.3,0,0,0-.8-3.5,7,7,0,0,0-2-2.2,11.1,11.1,0,0,0-2.9-1.4,19.2,19.2,0,0,0-3.2-.9l-2.6-.7-1.7-.6a1.5,1.5,0,0,1-.8-.8,1.7,1.7,0,0,1-.3-1,2.9,2.9,0,0,1,.2-.9,1.6,1.6,0,0,1,.7-.7l1.1-.6,1.8-.2a8.1,8.1,0,0,1,3.3.7,10.3,10.3,0,0,1,2.8,2l3.9-3.6a13.9,13.9,0,0,0-4.3-3,12,12,0,0,0-5.5-1.1,15,15,0,0,0-3.7.5,7.7,7.7,0,0,0-3,1.5,7.9,7.9,0,0,0-2.1,2.4,6.6,6.6,0,0,0-.7,3.2,7.3,7.3,0,0,0,.6,3.2,6.2,6.2,0,0,0,1.7,2.2,9.8,9.8,0,0,0,2.7,1.4,23.1,23.1,0,0,0,3.4,1l3,.7a7.8,7.8,0,0,1,1.8.8,3.8,3.8,0,0,1,.9.9,3.6,3.6,0,0,1,.2,1.1,2.2,2.2,0,0,1-1.1,2.1,7,7,0,0,1-3.6.7,8.9,8.9,0,0,1-3.6-.7,7.7,7.7,0,0,1-3.2-2.3l-3.8,3.4a10.2,10.2,0,0,0,4.2,3.4,13.9,13.9,0,0,0,6.1,1.3,17,17,0,0,0,4.8-.6,9.7,9.7,0,0,0,3.2-1.7,6.1,6.1,0,0,0,1.9-2.6,9,9,0,0,0,.6-3.4Z" style="fill:#fff;fill-rule:evenodd"></path><path d="M186.8,45.1h-5.4l-10.5,26h5.9l2.2-5.8h10l2.1,5.8h6.1Zm-6,15.3,1.8-4.7c.3-.8.6-1.6.8-2.3s.4-1.3.6-1.8.3,1.1.5,1.8a15.5,15.5,0,0,1,.8,2.3l1.8,4.7Z" style="fill:#fff;fill-rule:evenodd"></path><path d="M266.2,61.2a10.3,10.3,0,0,0,4.6-3,8.3,8.3,0,0,0,1.3-4.9,8.6,8.6,0,0,0-.7-3.6,7.5,7.5,0,0,0-2.1-2.6,8.4,8.4,0,0,0-3-1.5,13.6,13.6,0,0,0-3.6-.5H249.9v26h5.5V61.7l4.9.3,5.7,9.1h6.3Zm-3.6-4.4h-7.2V50.2h7.2a4.7,4.7,0,0,1,2.8.7,3,3,0,0,1,1.1,2.6Q266.5,56.8,262.6,56.8Z" style="fill:#fff;fill-rule:evenodd"></path></svg>