<svg xmlns="http://www.w3.org/2000/svg" xmlns:xlink="http://www.w3.org/1999/xlink" id="Layer_1" x="0px" y="0px" viewBox="0 0 372.5 94.1" style="enable-background:new 0 0 372.5 94.1;" xml:space="preserve"><style type="text/css">	.st0{fill:#FEC763;}	.st1{fill:#FFFFFF;}	.st2{fill:#FEC764;}</style><g>	<rect x="36.3" y="61.9" class="st0" width="10.2" height="10.2"></rect>	<path class="st1" d="M66,60.7l-24-23.8l-0.6-0.6l-0.6,0.6L27.4,50.3v-7.7h-6.2v14l-6.1,6.1c-4.8-6-7.5-13.4-7.5-21.2  c0-18.6,15.1-33.7,33.7-33.7c13.1,0,24.5,7.5,30.1,18.5h7.3C72.7,11.4,58.2,1,41.4,1C19.1,1,1,19.1,1,41.4c0,11.5,5,22.5,13.6,30.2  l0.6,0.5l0.3-0.3l0,0l0.6-0.6L41.5,46l21.5,21.3l-0.1,0.1l0.7,0.7l2.5,2.4L66,60.7z"></path>	<path class="st1" d="M92.7,65.8h-5.2l-8.7-19.9L79,70.8h-7.1v-39h7.9l10.2,23.8l10.2-23.8h7.9v39h-7.1l0.3-25L92.7,65.8z"></path>	<path class="st1" d="M118.7,61c0.1,2.2,1.5,4.1,4.5,4.1c3,0,6.1-0.6,9.3-2v6.8c-2.8,1.4-6.9,1.7-9.3,1.7c-8.9,0-11.7-5.6-11.7-13.8  S114.3,44,123.2,44c9.4,0,10.6,6.5,10.6,13.8V61H118.7z M118.6,54.8h8.1c-0.2-2.3-0.7-4.4-3.5-4.4  C120.2,50.4,119.1,52.3,118.6,54.8z"></path>	<path class="st1" d="M152.9,51.3c-1.1-0.5-2.9-0.9-4.5-0.9c-2,0-3.6,0.5-4.6,1v19.3h-6.9v-26h4.9l0.4,0.9c1.9-1.1,4.2-1.7,6.3-1.7  c2.5,0,4.1,0.4,4.5,0.6V51.3z"></path>	<path class="st1" d="M159.2,32.3c2.3,0,4.3,1.9,4.3,4.3c0,2.3-1.9,4.2-4.3,4.2c-2.3,0-4.2-1.9-4.2-4.2  C155,34.2,156.9,32.3,159.2,32.3z M162.5,71.6c-4.5,0-6.8-1.8-6.8-6.8v-20h6.8v18.9c0,1,0.5,1.5,1.9,1.5v6.5H162.5z"></path>	<path class="st1" d="M190.7,70.8h-4.8l-0.4-0.9c-1.9,1.1-4.5,1.8-6.5,1.8c-9.2,0-11.8-4.9-11.8-13.8c0-8.9,2.6-13.8,11.8-13.8  c1.5,0,3.6,0.4,4.9,1V31.8h6.8V70.8z M183.9,51.4c-1.1-0.5-3-1-4.8-1c-4.1,0-4.9,3.1-4.9,7.3c0,4.2,0.8,7.3,4.9,7.3  c1.9,0,3.7-0.5,4.8-1V51.4z"></path>	<path class="st1" d="M198.4,32.3c2.3,0,4.3,1.9,4.3,4.3c0,2.3-1.9,4.2-4.3,4.2c-2.3,0-4.2-1.9-4.2-4.2  C194.2,34.2,196,32.3,198.4,32.3z M201.7,71.6c-4.5,0-6.8-1.8-6.8-6.8v-20h6.8v18.9c0,1,0.5,1.5,1.9,1.5v6.5H201.7z"></path>	<path class="st1" d="M220.8,53.1c0-1.8-1-2.7-3.5-2.7c-2.6,0-6.3,0.7-9.1,1.7v-6.6c3-1.3,6.8-1.6,9.1-1.6c8.2,0,10.3,3.8,10.3,9.5  v17.3h-4.8l-0.4-0.8c-1.9,0.9-4.4,1.6-6.2,1.6c-7.4,0-9.8-4.5-9.8-9.3c0-4.5,2.5-8.4,9.8-8.8L220.8,53.1z M216.3,59.5  c-2.4,0.2-3.1,1.5-3.1,2.8c0,1.2,0.4,2.8,3,2.8c1.5,0,3.5-0.7,4.5-1.2v-4.7L216.3,59.5z"></path>	<path class="st1" d="M247,53.6c0-1.9-1-3.2-3.5-3.2c-2.2,0-4.6,0.8-5.4,1.1v19.2h-6.9v-26h4.8l0.4,0.8c1.6-0.7,4.8-1.7,7.1-1.7  c7.8,0,10.4,3.5,10.4,9.7v17.1H247V53.6z"></path>	<path class="st1" d="M278.7,38.7v32.1h-7.2V38.7h-9.8v-6.9h26.8v6.9H278.7z"></path>	<path class="st1" d="M302.6,51.3c-1.1-0.5-2.9-0.9-4.5-0.9c-2,0-3.6,0.5-4.6,1v19.3h-6.9v-26h4.9l0.4,0.9c1.9-1.1,4.2-1.7,6.3-1.7  c2.5,0,4.1,0.4,4.5,0.6V51.3z"></path>	<path class="st1" d="M311.8,61.9c0,1.9,1,3.2,3.5,3.2c2.2,0,4.6-0.8,5.4-1.1V44.8h6.9v26h-4.8l-0.4-0.8c-1.6,0.7-4.8,1.7-7.1,1.7  c-7.8,0-10.4-3.5-10.4-9.7V44.8h6.9V61.9z"></path>	<path class="st1" d="M341,54.2c7.7,0.7,9.5,3.5,9.5,8.3c0,4.4-2.6,9-10.9,9c-2.4,0-6.4-0.8-8.6-1.6v-6.8c2.4,0.9,5.8,1.9,8.6,1.9  c3.2,0,4.1-1.3,4.1-2.4c0-1-0.6-1.8-3.5-2.1c-7.6-0.7-9.5-3.8-9.5-7.8S333.4,44,341,44c2.4,0,5.3,0.4,8.4,1.7v6.5  c-2.9-1-5.6-1.8-8.4-1.8c-2.9,0-3.5,1-3.5,2.2C337.5,53.5,338.1,54,341,54.2z"></path>	<path class="st1" d="M369.5,71.1c-2.2,0.5-3.6,0.5-4,0.5c-4.5,0-8.9-2.3-8.9-7.7V51H352v-4.7l4.5-1.3v-6.1l6.8-1.9v7.7h7.2V51h-7.2  v12.5c0,1.2,1,1.6,2.5,1.6c0.9,0,2.7-0.2,3.6-0.3V71.1z"></path>	<g>		<path class="st2" d="M240.1,83.2v3.7h3.9v-3.7h2.1v9.6H244v-4.2h-3.9v4.2h-2.1v-9.6H240.1z"></path>		<path class="st2" d="M251.2,86.1c0.2-0.6,0.5-1.2,0.9-1.6c0.4-0.5,0.9-0.8,1.5-1.1c0.6-0.3,1.3-0.4,2-0.4c0.7,0,1.4,0.1,2,0.4   c0.6,0.3,1.1,0.6,1.5,1.1c0.4,0.5,0.7,1,0.9,1.6c0.2,0.6,0.3,1.3,0.3,2c0,0.7-0.1,1.4-0.3,2c-0.2,0.6-0.5,1.1-0.9,1.6   c-0.4,0.5-0.9,0.8-1.5,1.1c-0.6,0.3-1.3,0.4-2,0.4c-0.7,0-1.4-0.1-2-0.4c-0.6-0.3-1.1-0.6-1.5-1.1c-0.4-0.4-0.7-1-0.9-1.6   c-0.2-0.6-0.3-1.3-0.3-2C250.9,87.3,251,86.7,251.2,86.1z M253.2,89.2c0.1,0.4,0.2,0.7,0.5,1c0.2,0.3,0.5,0.6,0.8,0.7   c0.3,0.2,0.7,0.3,1.2,0.3c0.5,0,0.9-0.1,1.2-0.3c0.3-0.2,0.6-0.4,0.8-0.7c0.2-0.3,0.4-0.7,0.5-1c0.1-0.4,0.1-0.8,0.1-1.2   c0-0.4,0-0.8-0.1-1.2c-0.1-0.4-0.2-0.7-0.5-1.1c-0.2-0.3-0.5-0.6-0.8-0.7c-0.3-0.2-0.7-0.3-1.2-0.3c-0.5,0-0.9,0.1-1.2,0.3   c-0.3,0.2-0.6,0.4-0.8,0.7c-0.2,0.3-0.4,0.7-0.5,1.1c-0.1,0.4-0.1,0.8-0.1,1.2C253,88.5,253.1,88.9,253.2,89.2z"></path>		<path class="st2" d="M268.2,83.2l2.3,6.6h0l2.1-6.6h3v9.6h-2V86h0l-2.4,6.8h-1.6l-2.4-6.8h0v6.8h-2v-9.6H268.2z"></path>		<path class="st2" d="M288,83.2V85h-5.1V87h4.7v1.6h-4.7v2.4h5.2v1.8h-7.3v-9.6H288z"></path>		<path class="st2" d="M304.6,83.2c0.5,0,0.9,0,1.3,0.1c0.4,0.1,0.7,0.2,1,0.4c0.3,0.2,0.5,0.4,0.6,0.7c0.1,0.3,0.2,0.7,0.2,1.1   c0,0.5-0.1,0.9-0.3,1.2c-0.2,0.3-0.5,0.6-1,0.8c0.6,0.2,1,0.5,1.3,0.9c0.3,0.4,0.4,0.9,0.4,1.5c0,0.5-0.1,0.9-0.3,1.3   c-0.2,0.4-0.4,0.6-0.8,0.9c-0.3,0.2-0.7,0.4-1.1,0.5c-0.4,0.1-0.8,0.2-1.3,0.2h-4.7v-9.6H304.6z M304.3,87.1   c0.4,0,0.7-0.1,0.9-0.3c0.2-0.2,0.4-0.5,0.4-0.9c0-0.2,0-0.4-0.1-0.6c-0.1-0.1-0.2-0.3-0.3-0.3c-0.1-0.1-0.3-0.1-0.5-0.2   c-0.2,0-0.4,0-0.5,0h-2v2.3H304.3z M304.5,91.2c0.2,0,0.4,0,0.6-0.1c0.2,0,0.4-0.1,0.5-0.2c0.1-0.1,0.3-0.2,0.3-0.4   c0.1-0.2,0.1-0.4,0.1-0.6c0-0.5-0.1-0.8-0.4-1.1c-0.3-0.2-0.6-0.3-1.1-0.3h-2.3v2.6H304.5z"></path>		<path class="st2" d="M320,92.1c-0.7,0.6-1.7,1-3,1c-1.3,0-2.3-0.3-3-0.9c-0.7-0.6-1.1-1.6-1.1-2.9v-6h2.1v6c0,0.3,0,0.5,0.1,0.8   c0,0.3,0.1,0.5,0.3,0.7c0.1,0.2,0.3,0.4,0.6,0.5s0.6,0.2,1,0.2c0.8,0,1.3-0.2,1.6-0.5c0.3-0.3,0.4-0.9,0.4-1.6v-6h2.1v6   C321.1,90.5,320.8,91.5,320,92.1z"></path>		<path class="st2" d="M325.3,83.2h2.4l2.3,3.8l2.2-3.8h2.4l-3.6,5.9v3.7h-2.1v-3.8L325.3,83.2z"></path>		<path class="st2" d="M345.9,83.2V85h-5.1V87h4.7v1.6h-4.7v2.4h5.2v1.8h-7.3v-9.6H345.9z"></path>		<path class="st2" d="M356,83.2c0.4,0,0.8,0.1,1.2,0.2c0.3,0.1,0.6,0.3,0.9,0.6c0.2,0.2,0.4,0.5,0.6,0.8c0.1,0.3,0.2,0.7,0.2,1   c0,0.6-0.1,1.1-0.4,1.5c-0.2,0.4-0.6,0.7-1.2,0.9v0c0.3,0.1,0.5,0.2,0.6,0.3c0.2,0.1,0.3,0.3,0.4,0.5c0.1,0.2,0.2,0.4,0.2,0.7   c0,0.2,0.1,0.5,0.1,0.7c0,0.2,0,0.3,0,0.5c0,0.2,0,0.4,0,0.6c0,0.2,0.1,0.4,0.1,0.6c0,0.2,0.1,0.4,0.2,0.5H357   c-0.1-0.3-0.2-0.7-0.2-1.1c0-0.4-0.1-0.8-0.1-1.2c-0.1-0.5-0.2-0.9-0.5-1.1c-0.2-0.2-0.6-0.4-1.1-0.4H353v3.8h-2.1v-9.6H356z    M355.3,87.6c0.5,0,0.9-0.1,1.1-0.3c0.2-0.2,0.4-0.6,0.4-1.1c0-0.5-0.1-0.8-0.4-1c-0.2-0.2-0.6-0.3-1.1-0.3H353v2.7H355.3z"></path>		<path class="st2" d="M365.6,90.5c0.1,0.2,0.3,0.4,0.5,0.5c0.2,0.1,0.4,0.2,0.7,0.3c0.3,0.1,0.5,0.1,0.8,0.1c0.2,0,0.4,0,0.6,0   c0.2,0,0.4-0.1,0.6-0.2c0.2-0.1,0.3-0.2,0.5-0.4c0.1-0.2,0.2-0.4,0.2-0.6c0-0.3-0.1-0.5-0.2-0.6c-0.2-0.2-0.4-0.3-0.7-0.4   c-0.3-0.1-0.6-0.2-0.9-0.3c-0.3-0.1-0.7-0.2-1-0.3c-0.4-0.1-0.7-0.2-1.1-0.3c-0.3-0.1-0.6-0.3-0.9-0.5c-0.3-0.2-0.5-0.5-0.7-0.8   c-0.2-0.3-0.2-0.7-0.2-1.1c0-0.5,0.1-0.9,0.3-1.3c0.2-0.4,0.5-0.7,0.8-0.9c0.3-0.2,0.7-0.4,1.2-0.5c0.4-0.1,0.9-0.2,1.3-0.2   c0.5,0,1,0.1,1.5,0.2c0.5,0.1,0.9,0.3,1.2,0.5c0.4,0.3,0.6,0.6,0.9,1c0.2,0.4,0.3,0.9,0.3,1.4h-2.1c0-0.3-0.1-0.5-0.2-0.7   c-0.1-0.2-0.2-0.3-0.4-0.4c-0.2-0.1-0.4-0.2-0.6-0.2c-0.2,0-0.5-0.1-0.7-0.1c-0.2,0-0.3,0-0.5,0.1c-0.2,0-0.3,0.1-0.5,0.2   c-0.1,0.1-0.3,0.2-0.3,0.3c-0.1,0.1-0.1,0.3-0.1,0.5c0,0.2,0,0.3,0.1,0.5c0.1,0.1,0.2,0.2,0.4,0.3c0.2,0.1,0.5,0.2,0.9,0.3   c0.4,0.1,0.9,0.2,1.5,0.4c0.2,0,0.4,0.1,0.7,0.2c0.3,0.1,0.6,0.2,1,0.5c0.3,0.2,0.6,0.5,0.8,0.8c0.2,0.3,0.3,0.8,0.3,1.3   c0,0.4-0.1,0.9-0.3,1.2s-0.4,0.7-0.8,1c-0.3,0.3-0.8,0.5-1.3,0.6c-0.5,0.2-1.1,0.2-1.7,0.2c-0.5,0-1-0.1-1.5-0.2   c-0.5-0.1-0.9-0.3-1.3-0.6c-0.4-0.3-0.7-0.6-0.9-1.1c-0.2-0.4-0.3-0.9-0.3-1.5h2.1C365.4,90,365.5,90.2,365.6,90.5z"></path>	</g></g></svg>