<svg xmlns="http://www.w3.org/2000/svg" viewBox="0 0 298.7 118"><title>review-stat-1</title><g style="isolation:isolate"><g style="isolation:isolate"><path d="M152.4,90.3H141.8V38.9l-15.7,5.3V35.3l25-9.2h1.3Z" style="fill:#0b77bd"></path></g></g><g style="isolation:isolate"><g style="isolation:isolate"><path d="M168.8,58.6l3.4-32.3h34.4v9.2H181.1l-1.7,15.3a19.5,19.5,0,0,1,10-2.5c6.1,0,10.8,1.9,14.2,5.8s5.1,9.2,5.1,15.8-1.9,11.6-5.7,15.5-8.8,5.8-15.4,5.8a21.5,21.5,0,0,1-14.5-5A17.8,17.8,0,0,1,166.8,73h10.3a11.1,11.1,0,0,0,3.4,7.2,10.2,10.2,0,0,0,7.1,2.5,8.9,8.9,0,0,0,7.6-3.6c1.9-2.3,2.8-5.5,2.8-9.5s-1-7-3-9.3a10.6,10.6,0,0,0-8.4-3.4,14,14,0,0,0-4.9.8,13.2,13.2,0,0,0-4.4,3Z" style="fill:#0b77bd"></path><path d="M242.4,55.1h16.7v9.8H242.4v19H232v-19H215.3V55.1H232V37.3h10.4Z" style="fill:#0b77bd"></path></g></g><path d="M36.2,48.4H89.5v38H36.2Z" style="fill:#ffd15c"></path><path d="M36.2,37.6H89.5V48.4H36.2Z" style="fill:#0b77bd"></path><path d="M61.1,33.2h3.5V42H61.1Z" style="fill:#0a5e95"></path><path d="M74.9,33.2h3.4V42H74.9Z" style="fill:#0a5e95"></path><path d="M47.4,33.2h3.4V42H47.4Z" style="fill:#0a5e95"></path><circle cx="46.1" cy="56.6" r="2.9" style="fill:#f8b64c"></circle><circle cx="57.3" cy="56.6" r="2.9" style="fill:#f8b64c"></circle><circle cx="68.4" cy="56.6" r="2.9" style="fill:#f8b64c"></circle><circle cx="79.6" cy="56.6" r="2.9" style="fill:#f8b64c"></circle><circle cx="46.1" cy="67.4" r="2.9" style="fill:#f8b64c"></circle><circle cx="57.3" cy="67.4" r="2.9" style="fill:#f8b64c"></circle><circle cx="68.4" cy="67.4" r="2.9" style="fill:#f8b64c"></circle><circle cx="79.6" cy="67.4" r="2.9" style="fill:#f8b64c"></circle><circle cx="46.1" cy="78.3" r="2.9" style="fill:#f8b64c"></circle><circle cx="57.3" cy="78.3" r="2.9" style="fill:#f8b64c"></circle><circle cx="68.4" cy="78.3" r="2.9" style="fill:#f8b64c"></circle><circle cx="79.6" cy="78.3" r="2.9" style="fill:#f8b64c"></circle></svg>