<svg xmlns="http://www.w3.org/2000/svg" viewBox="0 0 298.7 118"><title>review-stat-3</title><g style="isolation:isolate"><g style="isolation:isolate"><path d="M172.4,66.5h8v8.6h-8V89.3H161.7V75.1H134.1l-.3-6.5,27.6-43.3h11Zm-27.4,0h16.7V39.8l-.8,1.4Z" style="fill:#0b77bd"></path><path d="M194.8,78.1a6.1,6.1,0,0,1,4.6,1.6A6,6,0,0,1,201,84a5.4,5.4,0,0,1-1.6,4.1,6.2,6.2,0,0,1-4.6,1.7,6.9,6.9,0,0,1-4.6-1.6,5.7,5.7,0,0,1-1.6-4.2,6,6,0,0,1,1.6-4.3A6.1,6.1,0,0,1,194.8,78.1Z" style="fill:#0b77bd"></path><path d="M255.2,31.2,229.6,89.3H218.4l25.5-55.4H210.8V25.3h44.4Z" style="fill:#0b77bd"></path></g></g><circle cx="68.9" cy="52.2" r="25.3" style="fill:#ffd15c"></circle><path d="M48.4,67,39.7,82.1l10.2-.5,4.6,9.1,8.1-14A25.6,25.6,0,0,1,48.4,67Z" style="fill:#0b77bd"></path><path d="M89.5,67a25.9,25.9,0,0,1-14.1,9.7l8.1,14,4.6-9.1,10.1.5Z" style="fill:#0b77bd"></path><circle cx="68.9" cy="52.2" r="18.3" style="fill:#f8b64c"></circle><path d="M81.5,50.3a1,1,0,0,0,0-1.4l-.5-.3-7.3-1a1.3,1.3,0,0,1-.7-.5l-3.2-6.6a.9.9,0,0,0-1.3-.4c-.2,0-.3.2-.4.4l-3.3,6.6a1.3,1.3,0,0,1-.7.5l-7.2,1a1,1,0,0,0-.8,1.1.9.9,0,0,0,.3.6l5.2,5.1a1.1,1.1,0,0,1,.3.8l-1.3,7.2a1,1,0,0,0,.8,1.1H62L68.5,61a1.4,1.4,0,0,1,.9,0l6.5,3.4a1,1,0,0,0,1.3-.4c0-.2.1-.4,0-.6L76,56.2a1.1,1.1,0,0,1,.3-.8Z" style="fill:#fff"></path></svg>