<svg xmlns="http://www.w3.org/2000/svg" viewBox="0 0 298.7 118"><title>review-stat-2</title><g style="isolation:isolate"><g style="isolation:isolate"><path d="M129.7,89.3H119.1V37.9l-15.7,5.3V34.3l25-9.2h1.3Z" style="fill:#0b77bd"></path></g></g><g style="isolation:isolate"><g style="isolation:isolate"><path d="M186.6,62.4c0,9.2-1.7,16.1-5.1,20.8s-8.7,7-15.7,7-12.2-2.3-15.7-6.9-5.2-11.3-5.3-20.2V52q0-13.8,5.1-20.7c3.5-4.6,8.7-6.9,15.8-6.9s12.2,2.3,15.7,6.8,5.2,11.2,5.2,20.1ZM176,50.4c0-6-.9-10.4-2.5-13.2s-4.2-4.2-7.8-4.2-6.1,1.3-7.7,4-2.5,6.8-2.6,12.4V63.9c0,6,.8,10.4,2.5,13.4a8.5,8.5,0,0,0,7.9,4.4,8.4,8.4,0,0,0,7.6-4.1c1.6-2.7,2.5-7,2.6-12.7Z" style="fill:#0b77bd"></path><path d="M216.2,61.7l-7.3,7.6v20H197.8v-64h11.1v30l6.2-7.6,18.7-22.4h13.4L223.5,53.7l25.1,35.6H235.4Z" style="fill:#0b77bd"></path><path d="M278.2,54.1h16.7v9.8H278.2v19H267.8v-19H251V54.1h16.8V36.3h10.4Z" style="fill:#0b77bd"></path></g></g><path d="M58.3,58.1V87.4H40.2V69.6H30.1V87.4H11.2V58.1L34.7,39.9Z" style="fill:#ffd15c"></path><path d="M58.3,58.1V87.4H40.2V69.6H34.7V39.9Z" style="fill:#f8b64c"></path><path d="M59.3,49.1V36.6H49.4v4.8L34.7,30.2.5,56.5l7.2,9.3L34.7,45,61.8,65.8,69,56.5Z" style="fill:#0b77bd"></path></svg>