<svg xmlns="http://www.w3.org/2000/svg" viewBox="0 0 110.9 115.2"><title>works-call</title><path d="M88,8.8H62a22.8,22.8,0,0,0-3.3,45.3v10A3.2,3.2,0,0,0,62,67.3a3.3,3.3,0,0,0,2.3-.9L75,55.7l1.3-1.4H88a22.8,22.8,0,0,0,.6-45.5Z" style="fill:#ffd15c"/><path d="M88,54.3a22.8,22.8,0,0,0,.6-45.5H75V55.7l1.3-1.4Z" style="fill:#f8b64c"/><path d="M82.8,83.6v13a9.7,9.7,0,0,1-9.7,9.7c-18.8,0-37-8.8-50.6-22.3S0,52.2,0,33.5a9.7,9.7,0,0,1,9.7-9.7H22.8a3.2,3.2,0,0,1,3,2.2l6.5,19.5a3.4,3.4,0,0,1-.3,2.8l-5.6,8.3A50.8,50.8,0,0,0,36.5,70,52.8,52.8,0,0,0,50,79.9l8.3-5.5a3.1,3.1,0,0,1,2.8-.4l19.5,6.5A3.3,3.3,0,0,1,82.8,83.6Z" style="fill:#0b77bd"/><path d="M82.8,83.6v13a9.7,9.7,0,0,1-9.7,9.7c-18.8,0-37-8.8-50.6-22.3l14-14A52.8,52.8,0,0,0,50,79.9l8.3-5.5a3.1,3.1,0,0,1,2.8-.4l19.5,6.5A3.3,3.3,0,0,1,82.8,83.6Z" style="fill:#0a5e95"/><circle cx="62.1" cy="31.5" r="3" style="fill:#fff"/><circle cx="74.9" cy="31.5" r="3" style="fill:#fff"/><path d="M78.2,31.6A3.2,3.2,0,0,0,75,28.3v6.5a3.2,3.2,0,0,0,3.2-3.2Z" style="fill:#fff"/><ellipse cx="88.2" cy="31.5" rx="3.4" ry="3" style="fill:#fff"/></svg>