<svg xmlns="http://www.w3.org/2000/svg" viewBox="0 0 82.8 115.2"><title>works-close</title><path d="M75.8,105.4l-7.4,2.4-6.4,2H28.2l-6.6-21L0,19.8,21.6,13,44.7,5.8,68.4,81.6Z" style="fill:#f8b64c"></path><path d="M60,97.2l1.7,5.1L41,108.8l-1.6-5.2-5.1,1.6L10.6,29.7l5.2-1.6-1.6-5.2,20.6-6.4,1.6,5.1L41.5,20,65.2,95.6Z" style="fill:#fec663"></path><path d="M21.6,5.4H68.4V109.8H21.6Z" style="fill:#f8b64c"></path><path d="M55.8,97.2v5.4H34.2V97.2H28.8V18h5.4V12.6H55.8V18h5.4V97.2Z" style="fill:#fec663"></path><circle cx="45.2" cy="57.4" r="9" style="fill:#f8b64c"></circle><path d="M82.8,66.6v43.2H70.2a18,18,0,0,1-18-18h0L40.5,74.5a7.2,7.2,0,0,1,12-8.1L63,81h5.4V37.8L81.9,63.2a6.7,6.7,0,0,1,.9,3.4Z" style="fill:#cb7565"></path></svg>