<svg xmlns="http://www.w3.org/2000/svg" width="115.177" height="115.176" viewBox="0 0 115.177 115.176"><g transform="translate(0)"><g transform="translate(33.744 0)"><g transform="translate(0 0)"><path d="M231.441,27V115.18H150.008V0h54.438Z" transform="translate(-150.008 -0.004)" fill="#edf9ff"></path></g></g><g transform="translate(88.183 0)"><path d="M396.779,0h-4.771V27H419V22.227Z" transform="translate(-392.008 -0.004)" fill="#0b77bd"></path></g><g transform="translate(47.242 20.246)"><path d="M210.008,90H244.2v6.749H210.008Z" transform="translate(-210.008 -90.004)" fill="#c0e1f0"></path></g><g transform="translate(47.242 33.743)"><path d="M210.008,150h54.438v6.749H210.008Z" transform="translate(-210.008 -150.004)" fill="#c0e1f0"></path></g><g transform="translate(53.99 47.24)"><path d="M240.008,210H287.7v6.749h-47.69Z" transform="translate(-240.008 -210.004)" fill="#c0e1f0"></path></g><g transform="translate(60.739 60.737)"><path d="M270.008,270h40.941v6.749H270.008Z" transform="translate(-270.008 -270.004)" fill="#c0e1f0"></path></g><g transform="translate(67.487 74.234)"><path d="M300.008,330H334.2v6.749H300.008Z" transform="translate(-300.008 -330.004)" fill="#c0e1f0"></path></g><g transform="translate(74.461 94.48)"><path d="M331.008,420h27.219v6.749H331.008Z" transform="translate(-331.008 -420.004)" fill="#0a5e95"></path></g><g transform="translate(0 6.884)"><path d="M8.631,35.893,0,41.182,10.578,58.445,18.1,57.8l2.877-1.763L25.758,53.1l2.083-5.234L17.262,30.6Z" transform="translate(0 -30.604)" fill="#1878bb"></path></g><g transform="translate(8.631 6.884)"><path d="M57.578,47.866,47,30.6l-8.631,5.289L50.71,56.033,55.5,53.1Z" transform="translate(-38.369 -30.604)" fill="#0a5e95"></path></g><g transform="translate(48.067 79.459)"><path d="M216.556,354.992l-2.877,1.763,7.052,11.508,2.877-1.763,2.877-1.763-7.052-11.508Z" transform="translate(-213.679 -353.229)" fill="#0b77bd"></path></g><g transform="translate(10.578 24.146)"><path d="M55.656,112.631l-8.631,5.289,21.157,34.525,6,.279,4.392-2.691,4.694-2.877,2.174-5.29L64.287,107.342Z" transform="translate(-47.025 -107.342)" fill="#fec663"></path></g><g transform="translate(19.209 24.146)"><path d="M115.182,141.867,94.025,107.342l-8.631,5.289,22.92,37.4,4.694-2.877Z" transform="translate(-85.394 -107.342)" fill="#f8b64c"></path></g><g transform="translate(31.735 58.67)"><path d="M149.705,266.106l-8.631,5.289c5.351,8.9,11.083,13.911,19.859,19.49l2.877-1.763,2.877-1.763c-.8-10.363-3-17.634-8.35-26.543Z" transform="translate(-141.074 -260.817)" fill="#ffe6cc"></path></g><g transform="translate(40.366 58.67)"><path d="M188.074,260.817l-8.631,5.289,14.1,23.016,2.877-1.763C195.62,277,193.429,269.725,188.074,260.817Z" transform="translate(-179.443 -260.817)" fill="#fc9"></path></g></g></svg>