<svg xmlns="http://www.w3.org/2000/svg" width="113.354" height="115.176" viewBox="0 0 113.354 115.176"><g transform="translate(0)"><path d="M193.146,289.965c-.011.007-15.2,11.092-22.626,16.428a58.023,58.023,0,0,1-4.935,3.206,29.062,29.062,0,0,1-14.5,3.835h-34.42l-12.35-21.152,8.188-3.188a21.687,21.687,0,0,1,35.25-5.352h13.157a4.543,4.543,0,0,1,4.576,4.285,4.472,4.472,0,0,1-4.468,4.659H143.735a3.374,3.374,0,0,0,0,6.749H159.9a12.241,12.241,0,0,0,6.544-1.874,11.915,11.915,0,0,0,1.422-1.042c.981-.709,13.326-9.6,19.755-14.235a4.731,4.731,0,1,1,5.527,7.68Z" transform="translate(-81.761 -214.646)" fill="#d58678"></path><path d="M300.644,307.227H284.465V295.7a21.89,21.89,0,0,1,2.913,2.578h13.265a4.472,4.472,0,1,1,0,8.944Z" transform="translate(-221.385 -229.185)" fill="#b95d4c"></path><path d="M332.771,305.287c-.011.007-15.2,11.092-22.626,16.428a58.038,58.038,0,0,1-4.935,3.206,29.062,29.062,0,0,1-14.5,3.835h-6.245v-14h15.056a12.241,12.241,0,0,0,6.544-1.874,11.924,11.924,0,0,0,1.422-1.042c.981-.709,13.326-9.6,19.755-14.235a4.731,4.731,0,1,1,5.527,7.68Z" transform="translate(-221.386 -229.968)" fill="#cb7565"></path><g transform="translate(37.814 0)"><path d="M229.131,28.492A28.491,28.491,0,1,1,200.64,0,28.523,28.523,0,0,1,229.131,28.492Z" transform="translate(-172.148)" fill="#ffd15c"></path></g><path d="M327.3,28.492a28.523,28.523,0,0,1-28.49,28.492V0A28.523,28.523,0,0,1,327.3,28.492Z" transform="translate(-232.501 0)" fill="#f8b64c"></path><path d="M273.3,62.591v.031a8.913,8.913,0,0,1-7.055,8.775v.79a3.374,3.374,0,1,1-6.749,0v-.778a8.908,8.908,0,0,1-7.032-8.654,3.374,3.374,0,0,1,3.352-3.395h.022a3.376,3.376,0,0,1,3.374,3.354,2.158,2.158,0,0,0,2.157,2.146h.013l1.487-.009,1.534-.009a2.158,2.158,0,0,0,2.146-2.175v-.031a2.168,2.168,0,0,0-.875-1.721l-2.805-2.076-6.823-5.048a8.907,8.907,0,0,1,3.449-15.873v-.774a3.374,3.374,0,1,1,6.749,0v.778a8.922,8.922,0,0,1,7.036,8.708,3.374,3.374,0,1,1-6.749,0,2.163,2.163,0,0,0-2.16-2.16h-3.026a2.158,2.158,0,0,0-1.285,3.894l2.807,2.079,6.821,5.048a8.944,8.944,0,0,1,3.608,7.1Z" transform="translate(-196.562 -26.173)" fill="#fff"></path><g transform="translate(0 71.625)"><g transform="translate(0 0)"><path d="M40.86,352.367l-15.872,9.165a3.144,3.144,0,0,1-4.3-1.151L4.47,332.284a3.148,3.148,0,0,1,1.151-4.3l15.872-9.162a3.144,3.144,0,0,1,4.3,1.151l16.222,28.1A3.144,3.144,0,0,1,40.86,352.367Z" transform="translate(-4.049 -318.403)" fill="#0b77bd"></path></g></g></g></svg>